TexturaLibera-Medium.sfdir
StartChar: quotesingle
Encoding: 39 39 7
Width: 300
Flags: MW
LayerCount: 4
Fore
SplineSet
125 600 m 29
 175 550 l 5
 175 500 l 29
 100 425 l 1053
EndSplineSet
EndChar
StartChar: parenright
Encoding: 41 41 9
Width: 250
Flags: MW
LayerCount: 4
Fore
SplineSet
50 700 m 17
 50 700 200 575 200 275 c 0
 200 -25 50 -150 50 -150 c 1033
EndSplineSet
EndChar
StartChar: asterisk
Encoding: 42 42 10
Width: 500
Flags: MW
LayerCount: 4
Fore
SplineSet
100 350 m 25
 400 500 l 1049
250 600 m 25
 250 250 l 1049
100 500 m 25
 400 350 l 1049
EndSplineSet
EndChar
StartChar: comma
Encoding: 44 44 12
Width: 300
Flags: MW
LayerCount: 4
Fore
SplineSet
125 50 m 25
 175 0 l 1
 175 -50 l 25
 100 -125 l 1049
EndSplineSet
EndChar
StartChar: semicolon
Encoding: 59 59 27
Width: 300
Flags: MW
LayerCount: 4
Fore
SplineSet
125 50 m 29
 175 0 l 5
 175 -50 l 29
 100 -125 l 1053
125 350 m 29
 175 300 l 1053
EndSplineSet
EndChar
StartChar: greater
Encoding: 62 62 30
Width: 600
Flags: MW
LayerCount: 4
Fore
SplineSet
100 500 m 25
 500 300 l 25
 100 100 l 1053
EndSplineSet
EndChar
StartChar: G
Encoding: 71 71 39
Width: 750
Flags: MW
AnchorPoint: "blwmark" 400 0 basechar 0
AnchorPoint: "abvmark" 450 700 basechar 0
LayerCount: 4
Fore
SplineSet
475 300 m 17
 475 300 522 364 575 364 c 3
 631 364 650 306 650 200 c 3
 650 75 519 0 400 0 c 3
 220 0 125 134 125 300 c 3
 125 480 300 600 300 600 c 1025
425 500 m 1
 425 100 l 1025
300 492 m 1
 300 492 395 600 455 600 c 3
 519 600 492 550 550 550 c 3
 598 550 625 600 626 600 c 1025
EndSplineSet
Layer: 2
SplineSet
300 550 m 1
 300 100 l 1025
EndSplineSet
EndChar
StartChar: I
Encoding: 73 73 41
Width: 450
Flags: MW
AnchorPoint: "blwmark" 250 0 basechar 0
AnchorPoint: "abvmark" 250 700 basechar 0
LayerCount: 4
Fore
SplineSet
50 550 m 1
 50 550 84 600 124 600 c 3
 160 600 178 575 200 575 c 3
 228 575 250 600 251 600 c 1025
375 600 m 1
 325 550 l 1
 325 50 l 1
 275 0 l 17
 275 0 248 50 150 50 c 3
 81 50 50 0 50 0 c 1033
EndSplineSet
Layer: 2
SplineSet
200 550 m 5
 200 75 l 1029
EndSplineSet
EndChar
StartChar: underscore
Encoding: 95 95 63
Width: 700
Flags: MW
LayerCount: 4
Fore
SplineSet
100 -150 m 25
 600 -150 l 1053
EndSplineSet
EndChar
StartChar: b
Encoding: 98 98 66
Width: 400
Flags: MW
AnchorPoint: "blwmark" 200 0 basechar 0
AnchorPoint: "abvmark" 200 700 basechar 0
LayerCount: 4
Fore
SplineSet
75 625 m 29
 125 575 l 1053
100 600 m 13
 100 100 l 29
 200 0 l 29
 300 100 l 29
 300 300 l 29
 200 400 l 5
 100 300 l 1053
EndSplineSet
EndChar
StartChar: j
Encoding: 106 106 74
Width: 200
Flags: MW
LayerCount: 4
Fore
SplineSet
100 650 m 25
 150 600 l 25
 100 550 l 1049
125 350 m 25
 75 400 l 25
 25 350 l 1049
100 375 m 1
 100 -100 l 9
 50 -150 l 1053
EndSplineSet
Substitution2: "Dotless forms-1" dotlessj
EndChar
StartChar: r
Encoding: 114 114 82
Width: 300
Flags: MW
AnchorPoint: "blwmark" 150 0 basechar 0
AnchorPoint: "abvmark" 150 500 basechar 0
LayerCount: 4
Fore
SplineSet
250 350 m 25
 200 400 l 25
 100 300 l 1049
75 50 m 25
 125 0 l 1049
75 400 m 25
 125 350 l 1049
100 375 m 9
 100 25 l 1025
EndSplineSet
EndChar
StartChar: t
Encoding: 116 116 84
Width: 325
Flags: MW
AnchorPoint: "blwmark" 175 0 basechar 0
AnchorPoint: "abvmark" 150 650 basechar 0
LayerCount: 4
Fore
SplineSet
50 400 m 25
 250 400 l 1049
125 550 m 1
 125 50 l 1
 175 0 l 1
 275 100 l 1025
EndSplineSet
EndChar
StartChar: v
Encoding: 118 118 86
Width: 400
Flags: MW
AnchorPoint: "blwmark" 200 0 basechar 0
LayerCount: 4
Fore
SplineSet
125 350 m 29
 75 400 l 1053
100 375 m 29
 100 100 l 5
 200 0 l 29
 300 100 l 5
 300 375 l 29
 300 375 250 423 250 472 c 12
 250 514 304 550 305 550 c 1053
EndSplineSet
Substitution2: "Dotless forms-1" v.alt
EndChar
StartChar: yen
Encoding: 165 165 204
Width: 650
Flags: MW
LayerCount: 4
Fore
SplineSet
50 550 m 1
 50 550 84 600 124 600 c 3
 160 600 178 575 200 575 c 1
 200 275 l 1025
100 200 m 17
 100 200 138 250 175 250 c 3
 310 250 325 150 325 150 c 1
 475 300 l 1025
50 -200 m 17
 50 -200 66 -150 250 -150 c 3
 412 -150 375 -200 375 -200 c 9
 475 -100 l 1
 475 575 l 1025
450 600 m 25
 500 550 l 1049
150 -25 m 17
 150 -25 190 25 225 25 c 27
 342 25 408 0 525 0 c 27
 560 0 600 50 600 50 c 1033
EndSplineSet
EndChar
StartChar: micro
Encoding: 181 181 209
Width: 400
Flags: MW
LayerCount: 4
Fore
SplineSet
100 375 m 1
 100 -150 l 1025
125 350 m 9
 75 400 l 1041
375 50 m 9
 325 0 l 1
 300 25 l 17
 300 375 l 1025
325 350 m 9
 275 400 l 1041
50 0 m 1
 50 0 59.9692380484 25 125 25 c 3
 186 25 200 0 200 0 c 9
 300 100 l 1025
EndSplineSet
EndChar
StartChar: periodcentered
Encoding: 183 183 212
Width: 300
Flags: MW
LayerCount: 4
Fore
SplineSet
125 350 m 29
 175 300 l 1053
EndSplineSet
EndChar
StartChar: AE
Encoding: 198 198 188
Width: 1150
Flags: MW
AnchorPoint: "blwmark" 600 0 basechar 0
AnchorPoint: "abvmark" 600 700 basechar 0
LayerCount: 4
Fore
SplineSet
525 550 m 9
 475 600 l 25
 425 550 l 1041
200 300 m 1
 200 300 230 350 300 350 c 3
 427 350 500 250 501 250 c 1025
225 575 m 1
 225 575 235 600 275 600 c 11
 324 600 350 549 350 500 c 3
 350 263 176 75 176 75 c 1025
50 0 m 1
 50 0 81 50 150 50 c 3
 248 50 275 0 275 0 c 1025
500 575 m 1
 525 300 l 1025
825 300 m 25
 825 300 872 350 900 350 c 27
 935 350 915 300 950 300 c 3
 991 300 1025 350 1026 350 c 1049
825 500 m 1
 825 100 l 1025
700 600 m 1
 700 600 525 480 525 300 c 3
 525 134 620 0 800 0 c 3
 919 0 1051 150 1052 150 c 1025
700 492 m 1
 700 492 795 600 855 600 c 3
 919 600 892 550 950 550 c 3
 998 550 1025 600 1026 600 c 1025
EndSplineSet
Layer: 2
SplineSet
700 550 m 5
 700 100 l 1029
EndSplineSet
EndChar
StartChar: Thorn
Encoding: 222 222 178
Width: 700
Flags: MW
AnchorPoint: "abvmark" 400 700 basechar 0
LayerCount: 4
Fore
SplineSet
250 50 m 25
 250 50 306 100 350 100 c 27
 421 100 500 50 500 50 c 1
 600 150 l 1
 600 275 l 1
 375 400 l 1
 325 350 l 1025
50 550 m 1
 50 550 84 600 124 600 c 3
 160 600 178 575 200 575 c 3
 228 575 250 600 251 600 c 1025
375 600 m 1
 325 550 l 1
 325 -75 l 1
 200 -200 l 1
 200 -200 173 -150 75 -150 c 3
 6 -150 -25 -200 -23 -200 c 1033
EndSplineSet
Layer: 2
SplineSet
200 550 m 5
 200 -125 l 1029
EndSplineSet
EndChar
StartChar: ae
Encoding: 230 230 189
Width: 550
Flags: MW
AnchorPoint: "blwmark" 300 0 basechar 0
AnchorPoint: "abvmark" 300 500 basechar 0
LayerCount: 4
Fore
SplineSet
125 250 m 17
 100 325 l 1
 175 400 l 1
 300 375 l 1
 300 125 l 9
 175 0 l 1
 100 75 l 1
 100 175 l 1
 175 250 l 1
 175 250 193.964297096 225 250 225 c 3
 269.004218286 225 300 225 300 225 c 1033
500 100 m 9
 400 0 l 25
 300 100 l 25
 300 300 l 25
 400 400 l 25
 500 300 l 1
 500 300 l 5
 300 100 l 1025
EndSplineSet
EndChar
StartChar: thorn
Encoding: 254 254 179
Width: 400
Flags: MW
AnchorPoint: "abvmark" 200 700 basechar 0
LayerCount: 4
Fore
SplineSet
50 0 m 1
 50 0 96 50 125 50 c 0
 154 50 200 0 200 0 c 9
 300 100 l 1
 300 300 l 25
 200 400 l 1
 100 300 l 1049
75 625 m 25
 125 575 l 1049
100 600 m 1
 100 -150 l 1025
EndSplineSet
EndChar
StartChar: Lslash
Encoding: 321 321 288
Width: 700
Flags: MW
AnchorPoint: "abvmark" 400 700 basechar 0
AnchorPoint: "blwmark" 350 0 basechar 0
LayerCount: 4
Fore
SplineSet
50 550 m 1
 50 550 84 600 124 600 c 3
 160 600 178 575 200 575 c 3
 228 575 250 600 251 600 c 1025
325 150 m 1
 325 550 l 1
 375 600 l 1025
600 300 m 1
 600 300 550 261 550 225 c 3
 550 164 600 101 600 101 c 1
 500 0 l 17
 500 0 349 50 150 50 c 3
 81 50 50 0 50 0 c 1033
450 450 m 25
 100 200 l 1049
EndSplineSet
Layer: 2
SplineSet
200 550 m 1
 200 75 l 1025
EndSplineSet
EndChar
StartChar: eng
Encoding: 331 331 600
Width: 400
Flags: MW
AnchorPoint: "abvmark" 200 500 basechar 0
LayerCount: 4
Fore
SplineSet
100 275 m 25
 225 400 l 1
 300 325 l 1
 300 -150 l 1
 300 -150 253 -200 225 -200 c 0
 193 -200 156 -150 125 -150 c 16
 87 -150 50 -200 50 -200 c 1033
75 50 m 25
 125 0 l 1049
125 350 m 25
 75 400 l 1049
100 375 m 9
 100 25 l 1025
EndSplineSet
EndChar
StartChar: dotlessj
Encoding: 567 567 98
Width: 200
Flags: MW
AnchorPoint: "abvmark" 100 500 basechar 0
LayerCount: 4
Fore
SplineSet
125 350 m 29
 75 400 l 29
 25 350 l 1053
100 375 m 5
 100 -100 l 13
 50 -150 l 1053
EndSplineSet
EndChar
StartChar: breve
Encoding: 728 728 265
Width: 400
Flags: MW
LayerCount: 4
Fore
SplineSet
100 600 m 17
 100 600 114.77749776 525 225 525 c 3
 270 525 325 600 325 600 c 1033
EndSplineSet
EndChar
StartChar: dotbelowcmb
Encoding: 803 803 357
Width: 0
VWidth: 400
Flags: MW
AnchorPoint: "blwmark" -200 0 mark 0
LayerCount: 4
Fore
SplineSet
-225 -100 m 29
 -175 -150 l 1053
EndSplineSet
EndChar
StartChar: breveinvertedbelowcmb
Encoding: 815 815 537
Width: 0
VWidth: 400
Flags: MW
AnchorPoint: "blwmark" -200 0 mark 0
LayerCount: 4
Fore
SplineSet
-75 -200 m 21
 -75 -200 -89.77734375 -125 -200 -125 c 7
 -245 -125 -300 -200 -300 -200 c 1037
EndSplineSet
EndChar
StartChar: endash
Encoding: 8211 8211 257
Width: 400
Flags: MW
LayerCount: 4
Fore
SplineSet
50 200 m 25
 350 200 l 1049
EndSplineSet
EndChar
StartChar: emdash
Encoding: 8212 8212 258
Width: 600
Flags: MW
LayerCount: 4
Fore
SplineSet
50 200 m 25
 550 200 l 1049
EndSplineSet
EndChar
StartChar: horizontalbar
Encoding: 8213 8213 909
Width: 700
Flags: MW
LayerCount: 4
Fore
SplineSet
50 200 m 25
 650 200 l 1049
EndSplineSet
EndChar
StartChar: quoteleft
Encoding: 8216 8216 254
Width: 300
Flags: MW
LayerCount: 4
Fore
SplineSet
175 425 m 29
 125 475 l 5
 125 525 l 29
 200 600 l 1053
EndSplineSet
EndChar
StartChar: quotedblbase
Encoding: 8222 8222 253
Width: 500
VWidth: 450
Flags: MW
LayerCount: 4
Fore
SplineSet
325 50 m 29
 375 0 l 5
 375 -50 l 29
 300 -125 l 1053
125 50 m 29
 175 0 l 5
 175 -50 l 29
 100 -125 l 1053
EndSplineSet
EndChar
StartChar: quotedblrev
Encoding: 8223 8223 929
Width: 500
Flags: MW
LayerCount: 4
Layer: 3
SplineSet
175 600 m 25
 125 550 l 1
 125 500 l 25
 200 425 l 1049
375 600 m 25
 325 550 l 1
 325 500 l 25
 400 425 l 1049
EndSplineSet
EndChar
StartChar: dagger
Encoding: 8224 8224 262
Width: 400
Flags: MW
LayerCount: 4
Fore
SplineSet
50 400 m 29
 100 350 l 29
 300 400 l 29
 350 350 l 1053
175 550 m 1
 175 550 188 459 190 400 c 24
 198 186 200 -150 200 -150 c 1
 200 -150 203 186 210 400 c 24
 213 478 225 600 225 600 c 9
 175 550 l 1
EndSplineSet
EndChar
StartChar: bullet
Encoding: 8226 8226 259
Width: 300
Flags: MW
LayerCount: 4
Fore
SplineSet
125 350 m 25
 200 275 l 29
 175 250 l 29
 100 325 l 25
 125 350 l 25
EndSplineSet
EndChar
StartChar: refmark
Encoding: 8251 8251 953
Width: 600
Flags: MW
LayerCount: 4
Fore
SplineSet
500 500 m 25
 100 100 l 1049
100 500 m 25
 500 100 l 1049
475 350 m 25
 525 300 l 1049
250 125 m 25
 300 75 l 1049
300 525 m 25
 350 475 l 1049
75 300 m 25
 125 250 l 1049
EndSplineSet
EndChar
StartChar: bracketquillleft
Encoding: 8261 8261 916
Width: 300
Flags: MW
LayerCount: 4
Fore
SplineSet
250 300 m 25
 100 300 l 1049
250 700 m 25
 100 700 l 25
 100 -150 l 25
 250 -150 l 1033
EndSplineSet
EndChar
StartChar: lozengedot
Encoding: 8280 8280 899
Width: 600
Flags: MW
LayerCount: 4
Fore
SplineSet
425 200 m 25
 475 150 l 1049
275 50 m 25
 325 0 l 1049
275 350 m 25
 325 300 l 1049
125 200 m 25
 175 150 l 1049
EndSplineSet
EndChar
StartChar: dotcross
Encoding: 8284 8284 954
Width: 600
Flags: MW
LayerCount: 4
Fore
SplineSet
300 550 m 25
 300 50 l 1049
50 300 m 25
 550 300 l 1049
425 475 m 25
 475 425 l 1049
425 175 m 25
 475 125 l 1049
125 475 m 25
 175 425 l 1049
125 175 m 25
 175 125 l 1049
EndSplineSet
EndChar
StartChar: because
Encoding: 8757 8757 897
Width: 600
Flags: MW
LayerCount: 4
Fore
SplineSet
425 350 m 25
 475 300 l 1049
125 350 m 25
 175 300 l 1049
275 50 m 25
 325 0 l 1049
EndSplineSet
EndChar
StartChar: bracketangleright
Encoding: 9297 9297 931
Width: 400
Flags: MW
LayerCount: 4
Fore
SplineSet
75 675 m 21
 75 675 155.283203125 553.91796875 175 525 c 4
 220 459 350 250 350 250 c 5
 350 250 196 60 150 0 c 4
 133.083984375 -22.064453125 50 -150 50 -150 c 1037
EndSplineSet
EndChar
StartChar: FleuronRight
Encoding: 10087 10087 956
Width: 800
Flags: MW
LayerCount: 4
Fore
SplineSet
50 150 m 25
 75 200 l 25
 325 300 l 1049
175 0 m 25
 150 25 l 25
 175 475 l 25
 150 500 l 1049
750 350 m 1
 750 350 622 25 450 25 c 3
 374 25 300 74 300 150 c 27
 300 212 425 250 425 250 c 1
 425 250 300 288 300 350 c 27
 300 405 351 450 400 450 c 3
 473 450 506 386 550 325 c 8
 579 285 576 225 625 225 c 3
 667 225 750 350 750 350 c 1
EndSplineSet
Colour: ffff00
EndChar
StartChar: llslst
Encoding: 11805 11805 905
Width: 300
Flags: MW
LayerCount: 4
Fore
SplineSet
50 -150 m 25
 250 100 l 1049
EndSplineSet
EndChar
StartChar: fivedots
Encoding: 11821 11821 935
Width: 600
Flags: MW
LayerCount: 4
Fore
SplineSet
275 200 m 25
 325 150 l 1049
450 200 m 25
 500 150 l 1049
275 25 m 25
 325 -25 l 1049
275 375 m 25
 325 325 l 1049
100 200 m 25
 150 150 l 1049
EndSplineSet
EndChar
StartChar: a_y
Encoding: 42813 42813 346
Width: 600
Flags: MW
AnchorPoint: "abvmark" 300 500 basechar 0
LayerCount: 4
Fore
SplineSet
300 125 m 9
 175 0 l 1
 100 75 l 1
 100 175 l 1
 175 250 l 1
 175 250 193.964297096 225 250 225 c 3
 269.004218286 225 300 225 300 225 c 1033
525 350 m 25
 475 400 l 1049
250 -200 m 17
 250 -200 287 -150 325 -150 c 8
 356 -150 393 -200 425 -200 c 24
 453 -200 500 -150 500 -150 c 1
 500 375 l 1025
500 100 m 9
 400 0 l 25
 300 100 l 1
 300 375 l 17
 175 400 l 1
 100 325 l 1
 125 250 l 1033
EndSplineSet
LCarets2: 1 300 
Ligature2: "Historic ligatures-1" a y
EndChar
StartChar: psquirrel
Encoding: 42837 42837 870
Width: 500
Flags: MW
AnchorPoint: "abvmark" 300 500 basechar 0
LayerCount: 4
Fore
SplineSet
200 300 m 25
 300 400 l 1
 400 300 l 25
 400 100 l 1
 300 0 l 1
 300 0 298 50 25 50 c 1
 25 50 75 156 75 200 c 3
 75 332 25 400 25 400 c 1033
175 400 m 25
 225 350 l 1049
200 375 m 1
 200 -150 l 1025
EndSplineSet
EndChar
StartChar: vslash
Encoding: 42847 42847 873
Width: 400
Flags: MW
LayerCount: 4
Fore
SplineSet
125 350 m 25
 75 400 l 1049
100 375 m 25
 100 100 l 1
 200 0 l 25
 300 100 l 1
 300 375 l 25
 300 375 250 423 250 472 c 8
 250 514 304 550 305 550 c 1049
225 350 m 25
 25 150 l 1049
EndSplineSet
EndChar
StartChar: thornbar
Encoding: 42853 42853 874
Width: 400
Flags: MW
AnchorPoint: "abvmark" 200 700 basechar 0
LayerCount: 4
Fore
SplineSet
50 0 m 5
 50 0 96 50 125 50 c 4
 154 50 200 0 200 0 c 13
 300 100 l 5
 300 300 l 29
 200 400 l 5
 100 300 l 1053
75 625 m 29
 125 575 l 1053
100 600 m 5
 100 -150 l 1029
200 475 m 29
 25 475 l 1053
EndSplineSet
EndChar
StartChar: thornbarbelow
Encoding: 42855 42855 875
Width: 400
Flags: MW
AnchorPoint: "abvmark" 200 700 basechar 0
LayerCount: 4
Fore
SplineSet
200 -75 m 25
 25 -75 l 1049
100 300 m 25
 200 400 l 1
 300 300 l 1
 300 50 l 1
 250 0 l 1
 250 0 206 100 125 100 c 0
 96 100 50 50 50 50 c 1025
75 625 m 25
 125 575 l 1049
100 600 m 1
 100 -150 l 1025
EndSplineSet
EndChar
StartChar: vend
Encoding: 42857 42857 876
Width: 400
Flags: MW
AnchorPoint: "abvmark" 200 500 basechar 0
LayerCount: 4
Fore
SplineSet
50 -50 m 9
 300 200 l 1
 300 350 l 25
 250 400 l 1025
75 400 m 25
 125 350 l 1049
100 375 m 1
 100 -150 l 1025
EndSplineSet
EndChar
StartChar: con
Encoding: 42863 42863 890
Width: 400
Flags: MW
LayerCount: 4
Fore
SplineSet
250 -150 m 25
 300 -100 l 1
 300 300 l 9
 200 400 l 1
 100 300 l 25
 100 100 l 25
 200 0 l 1049
EndSplineSet
EndChar
StartChar: dum
Encoding: 42865 42865 448
Width: 600
Flags: MW
AnchorPoint: "abvmark" 250 700 basechar 0
LayerCount: 4
Fore
SplineSet
400 225 m 1
 450 200 l 1
 450 200 450 139 450 100 c 27
 450 3 300 -150 300 -150 c 1025
300 300 m 1
 200 400 l 25
 100 300 l 1
 100 100 l 25
 200 0 l 17
 300 100 l 1025
141 650 m 25
 140 650 100 628 100 600 c 27
 100 556 156 550 200 550 c 0
 244 550 300 505 300 450 c 18
 300 0 l 9
 350 50 l 17
 350 50 381 0 475 0 c 3
 531 0 550 50 550 50 c 1033
EndSplineSet
EndChar
StartChar: rum
Encoding: 42869 42869 704
Width: 450
Flags: MW
LayerCount: 4
Fore
SplineSet
250 525 m 1
 300 500 l 1
 300 500 300 406 300 250 c 3
 300 -37.2507615308 150 -150 150 -150 c 1025
400 400 m 17
 400 400 381 350 325 350 c 3
 231 350 200 400 200 400 c 9
 100 300 l 1025
75 50 m 25
 125 0 l 1049
75 400 m 25
 125 350 l 1049
100 375 m 9
 100 25 l 1025
EndSplineSet
EndChar
StartChar: kbar_longs
Encoding: 59336 59336 962
Width: 425
Flags: MW
LayerCount: 4
Fore
SplineSet
-125 -200 m 21
 -125 -200 -88 -150 -50 -150 c 12
 -19 -150 18 -200 50 -200 c 28
 78 -200 125 -150 125 -150 c 5
 125 550 l 5
 225 650 l 21
 225 650 256 600 300 600 c 28
 328 600 375 650 376 650 c 1037
300 50 m 29
 350 0 l 1053
225 275 m 5
 325 200 l 5
 325 25 l 1029
125 200 m 5
 325 350 l 13
 325 400 l 1053
300 425 m 29
 350 375 l 1053
200 475 m 29
 25 475 l 1053
EndSplineSet
LCarets2: 1 225 
Ligature2: "Historic ligatures-1" kbar longs
EndChar
StartChar: h_longs
Encoding: 60333 60333 515
Width: 425
Flags: MW
LayerCount: 4
Fore
SplineSet
300 50 m 25
 350 0 l 1049
325 25 m 25
 325 325 l 25
 250 400 l 1
 125 275 l 1049
-125 -200 m 17
 -125 -200 -88 -150 -50 -150 c 8
 -19 -150 18 -200 50 -200 c 24
 78 -200 125 -150 125 -150 c 1
 125 550 l 1
 225 650 l 17
 225 650 256 600 300 600 c 24
 328 600 375 650 376 650 c 1033
EndSplineSet
LCarets2: 1 225 
Ligature2: "Historic ligatures-1" h longs
EndChar
StartChar: b_b
Encoding: 61122 61122 349
Width: 600
GlyphClass: 3
Flags: MW
LayerCount: 4
Fore
SplineSet
275 625 m 25
 325 575 l 1049
300 600 m 9
 300 100 l 25
 400 0 l 25
 500 100 l 25
 500 300 l 25
 400 400 l 1
 300 300 l 1049
75 625 m 25
 125 575 l 1049
100 600 m 9
 100 100 l 25
 200 0 l 25
 300 100 l 25
 300 300 l 25
 200 400 l 1
 100 300 l 1049
EndSplineSet
LCarets2: 1 300 
Ligature2: "Historic ligatures-1" b b
EndChar
StartChar: f_r
Encoding: 61130 61130 352
Width: 550
GlyphClass: 3
Flags: MW
LayerCount: 4
Fore
SplineSet
-125 -200 m 1
 -125 -200 -88 -150 -50 -150 c 8
 -19 -150 18 -200 50 -200 c 24
 78 -200 125 -150 125 -150 c 1
 125 550 l 1
 225 650 l 17
 225 650 256 600 300 600 c 24
 328 600 375 650 376 650 c 1025
50 400 m 1
 325 400 l 29
 375 350 l 1029
500 350 m 29
 450 400 l 29
 350 300 l 1053
325 50 m 29
 375 0 l 1053
350 375 m 13
 350 25 l 1029
EndSplineSet
LCarets2: 1 300 
Ligature2: "Ligatures-1" f r
EndChar
StartChar: f_y
Encoding: 61133 61133 353
Width: 650
GlyphClass: 3
Flags: MW
LayerCount: 4
Fore
SplineSet
575 350 m 25
 525 400 l 1049
300 -200 m 17
 300 -200 337 -150 375 -150 c 8
 406 -150 443 -200 475 -200 c 24
 503 -200 550 -150 550 -150 c 1
 550 375 l 1025
550 100 m 9
 450 0 l 25
 350 100 l 1
 350 375 l 1049
-125 -200 m 17
 -125 -200 -88 -150 -50 -150 c 8
 -19 -150 18 -200 50 -200 c 24
 78 -200 125 -150 125 -150 c 1
 125 550 l 1
 225 650 l 17
 225 650 256 600 300 600 c 24
 328 600 375 650 376 650 c 1033
50 400 m 1
 325 400 l 29
 375 350 l 1025
EndSplineSet
LCarets2: 1 300 
Ligature2: "Ligatures-1" f y
EndChar
StartChar: p_p
Encoding: 61142 61142 689
Width: 600
Flags: MW
LayerCount: 4
Fore
SplineSet
300 -150 m 1
 300 300 l 9
 400 400 l 1
 500 300 l 25
 500 100 l 1
 400 0 l 1
 400 0 366 50 275 50 c 0
 246 50 200 0 200 0 c 1
 200 0 154 50 125 50 c 0
 96 50 50 0 50 0 c 1025
300 300 m 25
 200 400 l 1
 100 300 l 1049
75 400 m 25
 125 350 l 1049
100 375 m 1
 100 -150 l 1025
EndSplineSet
LCarets2: 1 300 
Ligature2: "Historic ligatures-1" p p
EndChar
StartChar: a_n
Encoding: 61351 61351 340
Width: 600
GlyphClass: 3
Flags: MW
LayerCount: 4
Fore
SplineSet
125 250 m 17
 100 325 l 1
 175 400 l 1
 300 375 l 1
 300 125 l 9
 175 0 l 1
 100 75 l 1
 100 175 l 1
 175 250 l 1
 175 250 193.964297096 225 250 225 c 3
 269.004218286 225 300 225 300 225 c 1033
475 50 m 25
 525 0 l 1049
500 25 m 1
 500 325 l 25
 425 400 l 1
 300 275 l 1049
275 50 m 25
 325 0 l 1049
300 25 m 1
 300 375 l 1041
EndSplineSet
LCarets2: 1 300 
Ligature2: "Historic ligatures-1" a n
EndChar
StartChar: o_c
Encoding: 61357 61357 668
Width: 550
Flags: MW
LayerCount: 4
Fore
SplineSet
500 300 m 9
 400 400 l 25
 300 300 l 25
 300 100 l 25
 400 0 l 25
 500 100 l 1041
200 400 m 25
 100 300 l 25
 100 100 l 25
 200 0 l 25
 300 100 l 25
 300 300 l 25
 200 400 l 25
EndSplineSet
LCarets2: 1 300 
Ligature2: "Historic ligatures-1" o c
EndChar
StartChar: h.alt
Encoding: 62010 62010 860
Width: 400
Flags: MW
AnchorPoint: "abvmark" 200 700 basechar 0
LayerCount: 4
Fore
SplineSet
75 50 m 9
 125 0 l 1041
75 625 m 9
 125 575 l 1041
100 600 m 9
 100 25 l 1041
100 275 m 9
 225 400 l 1
 300 325 l 1
 300 -100 l 17
 250 -150 l 1025
EndSplineSet
EndChar
StartChar: longs_k
Encoding: 62716 62716 708
Width: 650
Flags: MW
LayerCount: 4
Fore
SplineSet
525 425 m 25
 575 375 l 1049
350 200 m 1
 550 350 l 9
 550 400 l 1049
450 275 m 1
 550 200 l 1
 550 25 l 1025
525 50 m 25
 575 0 l 1049
325 50 m 25
 375 0 l 1049
-125 -200 m 17
 -125 -200 -88 -150 -50 -150 c 8
 -19 -150 18 -200 50 -200 c 24
 78 -200 125 -150 125 -150 c 1
 125 550 l 1
 225 650 l 1
 225 650 266 600 350 600 c 9
 350 25 l 1025
EndSplineSet
LCarets2: 1 300 
Ligature2: "Ligatures-1" longs k
EndChar
StartChar: longs_longs_k
Encoding: 62718 62718 711
Width: 850
Flags: MW
LayerCount: 4
Fore
SplineSet
725 425 m 25
 775 375 l 1049
550 200 m 1
 750 350 l 9
 750 400 l 1049
650 275 m 1
 750 200 l 1
 750 25 l 1025
725 50 m 25
 775 0 l 1049
525 50 m 25
 575 0 l 1049
550 25 m 1
 550 600 l 1
 466 600 425 650 425 650 c 9
 325 550 l 1
 325 -150 l 1
 325 -150 278 -200 250 -200 c 0
 218 -200 156 -150 125 -150 c 1025
-125 -200 m 17
 -125 -200 -88 -150 -50 -150 c 8
 -19 -150 18 -200 50 -200 c 24
 78 -200 125 -150 125 -150 c 1
 125 550 l 1
 225 650 l 1
 225 650 281 550 325 550 c 1025
EndSplineSet
LCarets2: 2 300 500 
Ligature2: "Ligatures-1" longs longs k
EndChar
StartChar: f_l
Encoding: 64258 64258 323
Width: 450
Flags: MW
LayerCount: 4
Fore
SplineSet
-125 -200 m 17
 -125 -200 -88 -150 -50 -150 c 8
 -19 -150 18 -200 50 -200 c 24
 78 -200 125 -150 125 -150 c 1
 125 550 l 1
 225 650 l 1
 225 650 265 625 325 625 c 9
 375 575 l 1025
50 400 m 25
 300 400 l 1049
325 50 m 25
 375 0 l 25
 425 50 l 1049
350 600 m 9
 350 25 l 1049
EndSplineSet
LCarets2: 1 300 
Ligature2: "Ligatures-1" f l
EndChar
StartChar: f_f_i
Encoding: 64259 64259 324
Width: 650
Flags: MW
LayerCount: 4
Fore
SplineSet
125 -150 m 5
 156 -150 218 -200 250 -200 c 4
 278 -200 325 -150 325 -150 c 5
 325 550 l 5
 425 650 l 21
 425 650 500 600 600 600 c 5
 550 550 l 1029
-125 -200 m 5
 -125 -200 -88 -150 -50 -150 c 12
 -19 -150 18 -200 50 -200 c 28
 78 -200 125 -150 125 -150 c 5
 125 550 l 5
 225 650 l 5
 225 650 281 550 325 550 c 1029
50 400 m 5
 525 400 l 29
 575 350 l 1029
550 375 m 13
 550 25 l 1029
525 50 m 29
 575 0 l 29
 625 50 l 1053
EndSplineSet
LCarets2: 2 300 500 
Ligature2: "Ligatures-1" f f i
EndChar
StartChar: s_t
Encoding: 64262 64262 334
Width: 700
Flags: MW
LayerCount: 4
Fore
SplineSet
50 0 m 1
 50 0 90 50 125 50 c 24
 160 50 200 0 200 0 c 9
 300 100 l 1
 300 160 l 1
 100 240 l 1
 100 300 l 1
 200 400 l 17
 200 400 274.817238291 350 450 350 c 7
 591.127601836 350 625 400 625 400 c 1033
500 550 m 1
 500 50 l 1
 550 0 l 1
 650 100 l 1025
EndSplineSet
LCarets2: 1 400 
Ligature2: "Ligatures-1" s t
EndChar
StartChar: v.alt
Encoding: 65540 -1 782
Width: 400
Flags: MW
AnchorPoint: "abvmark" 200 500 basechar 0
AnchorPoint: "blwmark" 200 0 basechar 0
LayerCount: 4
Fore
SplineSet
250 400 m 1
 300 350 l 25
 300 100 l 1
 200 0 l 25
 100 100 l 1
 100 375 l 1049
125 350 m 25
 75 400 l 1049
EndSplineSet
EndChar
StartChar: w.alt
Encoding: 65542 -1 784
Width: 600
Flags: MW
AnchorPoint: "abvmark" 300 500 basechar 0
AnchorPoint: "blwmark" 300 0 basechar 0
LayerCount: 4
Fore
SplineSet
325 350 m 25
 275 400 l 1049
300 375 m 25
 300 100 l 1
 400 0 l 25
 500 100 l 1
 500 350 l 25
 450 400 l 1049
125 350 m 25
 75 400 l 1049
100 375 m 25
 100 100 l 1
 200 0 l 25
 300 100 l 1025
EndSplineSet
EndChar
